<svg width="22" height="22" viewBox="0 0 22 22" fill="none" xmlns="http://www.w3.org/2000/svg">
<path fill-rule="evenodd" clip-rule="evenodd" d="M22 22H17.4797V14.3009C17.4797 12.19 16.6776 11.0104 15.0068 11.0104C13.1893 11.0104 12.2396 12.238 12.2396 14.3009V22H7.88333V7.33333H12.2396V9.30893C12.2396 9.30893 13.5495 6.88525 16.6618 6.88525C19.7728 6.88525 22 8.78497 22 12.714V22ZM2.68626 5.41285C1.20241 5.41285 0 4.20101 0 2.70643C0 1.21184 1.20241 0 2.68626 0C4.17012 0 5.37181 1.21184 5.37181 2.70643C5.37181 4.20101 4.17012 5.41285 2.68626 5.41285ZM0.436849 22H4.97936V7.33333H0.436849V22Z" fill="white"/>
</svg>



